REM MD5 1def56881fe0a5dcb40615f83e122926
FILE "Euro Demo 09 (Europe).bin" BINARY
  TRACK 01 MODE2/2352
    INDEX 01 00:00:00
  TRACK 02 AUDIO
    INDEX 00 11:29:53
    INDEX 01 11:31:53
  TRACK 03 AUDIO
    INDEX 00 13:48:44
    INDEX 01 13:50:44
  TRACK 04 AUDIO
    INDEX 00 18:50:44
    INDEX 01 18:52:44
  TRACK 05 AUDIO
    INDEX 00 19:01:54
    INDEX 01 19:03:54
  TRACK 06 AUDIO
    INDEX 00 20:46:38
    INDEX 01 20:48:38
REM LEADOUT 23:44:42
